{"title":"Sin City[2005]DvDrip AC3[Eng]","uid":5811838,"size":742087190,"categoryP":"video","categoryS":"other","magnet":"?xt=urn:btih:ef00b4271cfb4e13f7ff1c2edc346382aa0df465&amp;dn=Sin+City%5B2005%5DDvDrip+AC3%5BEng%5D&amp;tr=udp%3A%2F%2Ftracker.openbittorrent.com%3A80&amp;tr=udp%3A%2F%2Fopen.demonii.com%3A1337&amp;tr=udp%3A%2F%2Ftracker.coppersurfer.tk%3A6969&amp;tr=udp%3A%2F%2Fexodus.desync.com%3A6969","seeders":0,"leechers":0,"uploader":"kuttunni","files":3,"time":1283675275,"description":"Duration: 01:58:59.40, start: 0.000000, bitrate: 831 kb/s\nStream #0.0: Video: mpeg4, yuv420p, 496x272 [PAR 1:1 DAR 31:17], 25.00 tb(r)\nStream #0.1: Audio: mp3, 48000 Hz, stereo, s16, 32 kb/s","torrent":{"xt":"urn:btih:ef00b4271cfb4e13f7ff1c2edc346382aa0df465","amp;dn":"Sin+City%5B2005%5DDvDrip+AC3%5BEng%5D","amp;tr":["udp%3A%2F%2Ftracker.openbittorrent.com%3A80","udp%3A%2F%2Fopen.demonii.com%3A1337","udp%3A%2F%2Ftracker.coppersurfer.tk%3A6969","udp%3A%2F%2Fexodus.desync.com%3A6969"],"infoHash":"ef00b4271cfb4e13f7ff1c2edc346382aa0df465","infoHashBuffer":{"type":"Buffer","data":[239,0,180,39,28,251,78,19,247,255,28,46,220,52,99,130,170,13,244,101]},"announce":[],"urlList":[]}}